<svg xmlns="http://www.w3.org/2000/svg" viewBox="0 0 560.31 625.24"><defs></defs><g id="Layer_2" data-name="Layer 2"><g id="Layer_1-2" data-name="Layer 1"><path fill="#508aff" d="M0,142.79,1.35,482.6,278.83,625.24,558.59,482.39a3.16,3.16,0,0,0,1.72-2.82l-1.1-335.93-81.33,40.85v250a10,10,0,0,1-5.89,9.11L280.15,529.89,88.68,440.83a10,10,0,0,1-5.8-9.08V185.81Z"/><polygon fill="#dfe6fe" points="82.88 100.21 280.38 0 477.88 101.44 402.63 142.79 280.16 84.21 165 142.79 82.88 100.21"/><polygon fill="#508aff" points="228.51 512.99 228.51 261.17 281.39 288.56 334.28 260.96 334.28 510.09 279.17 568.35 228.51 512.99"/></g></g></svg>