<svg version="1" xmlns="http://www.w3.org/2000/svg" width="833.333" height="833.333" viewBox="0 0 625.000000 625.000000"><path d="M291 10.6c-11.3 5.8-40.3 20.6-64.5 32.9C130.7 92 118.8 98.1 117 99.2c-1.9 1.2 2.1 3.5 34 19.5 5.2 2.7 9.7 5 10 5.3.3.3 7 3.8 15 7.9 23.3 12 21.2 11.1 23.6 9.6 3.1-2 30.3-15.5 31-15.4.4 0 1-.3 1.3-.8.3-.5 8.9-5.1 19.1-10.2 10.2-5.1 28.1-14.2 39.8-20.1l21.3-10.8 18.2 8.7c10 4.9 21.6 10.4 25.7 12.4 4.1 1.9 13.1 6.2 20 9.5s18.4 8.7 25.5 12.1c7.2 3.5 17.5 8.4 22.9 11.1l10 4.8 6-3.5c3.4-1.9 7.2-3.9 8.6-4.6 1.4-.6 3.1-1.7 3.8-2.4.8-.7 1.8-1.1 2.3-.8.5.4.9.1.9-.4 0-.6.4-1.1.9-1.1s6-2.9 12.2-6.3c11.3-6.3 16.8-9.4 28.4-15.7 3.3-1.8 6.6-3.7 7.3-4.3.6-.5 1.2-.6 1.2-.3 0 .4.6.1 1.4-.6.8-.7 1.1-1.6.8-2-.4-.3-10.1-5.5-21.7-11.4-11.5-5.9-29.4-15-39.7-20.3-10.2-5.3-26.2-13.4-35.5-18.1-9.2-4.7-17-8.7-17.3-9-.3-.3-5.9-3.2-12.5-6.6-6.6-3.3-24.9-12.7-40.7-20.7C325.1 6.6 312 0 311.8.1c-.1 0-9.5 4.8-20.8 10.5z"/><path d="M32.6 285.7c.2 78.5.6 154.9.7 169.8l.2 26.9 6 3.1c16 8.3 54.6 28.2 103.5 53.2 10.2 5.3 25.7 13.3 34.5 17.8s22.5 11.6 30.5 15.6c8 4.1 14.7 7.6 15 7.9.3.3 6.8 3.7 14.5 7.5 26.4 13.3 70 35.8 71.2 36.7.8.7 5.6-1.2 15-5.8 7.6-3.8 14-7.1 14.3-7.4.3-.3 10.4-5.5 22.5-11.5 12.1-6.1 22.2-11.2 22.5-11.5.3-.3 13.1-6.8 28.5-14.5s28.2-14.2 28.5-14.5c.5-.5 27.1-14.1 41-20.9 3.6-1.8 7.4-3.7 8.5-4.3 5.3-3.1 11.1-5.8 12.2-5.8.6 0 1.3-.4 1.5-.9.2-.5 3-2.2 6.3-3.8 3.3-1.6 22.2-11.2 42-21.3 19.8-10.1 37-18.9 38.2-19.5l2.3-1-.5-168.5c-.3-92.6-.8-168.6-1.1-168.9-.2-.3-1 .1-1.6.7-.7.7-2 1.2-2.9 1.2-1 0-1.9.3-2.1.7-.4 1-17.1 9.3-18.5 9.3-.6 0-1.3.3-1.5.7-.1.5-12.4 6.8-27.3 14.2l-27 13.5v126c0 102.6-.2 126.4-1.3 128.7-.9 1.9-3.7 3.8-8.8 6.3-4.1 2-7.7 3.6-7.9 3.6-.2 0-4.3 1.8-9 4s-8.8 4-9 4c-.1 0-4.3 1.8-9.2 4-4.8 2.3-9.7 4.5-10.8 5-1.1.5-6 2.7-10.8 5-4.9 2.2-9 4-9.2 4-.2 0-3.6 1.5-7.7 3.4-6.8 3.1-21.1 9.5-47.6 21.5-6.3 2.8-11.5 5.1-11.8 5.1-.2 0-.3-51.2-.3-113.8 0-62.5-.1-117.4-.1-122v-8.3l-17.7 9.2c-9.8 5.1-21.6 11.3-26.3 13.8l-8.6 4.4-8.9-4.5c-5-2.5-16.9-8.6-26.5-13.6l-17.6-9.1.1 120.7c0 66.4-.1 121.4-.3 122.3-.3 1.5-.8 1.4-4.5-.5-2.3-1.2-8-3.9-12.7-6.1-4.7-2.1-12.7-5.8-17.7-8.2-5.1-2.4-9.7-4.3-10.3-4.3-.5 0-1-.4-1-1 0-.5-.3-.9-.7-.8-.7.2-3.5-1-20.8-9.1-26-12.3-28.8-13.5-29.7-13.3-.5.1-.8-.2-.8-.8 0-.5-.4-1-.9-1-.9 0-7.5-3-25.6-11.6-4.4-2-8.2-3.8-8.5-3.8-3.1-.6-9.9-5.2-10.9-7.3-.9-2.1-1.2-31.3-1.2-126.8V185.4l-3.7-1.7c-2-.9-13.6-6.8-25.7-13.1-12.1-6.4-26.7-13.9-32.5-16.8-5.8-2.9-10.7-5.5-11-5.9-.3-.3-2.3-1.3-4.5-2.3-2.2-1-4.3-2.1-4.7-2.3-.4-.2-.5 63.9-.2 142.4z"/></svg>